<svg viewBox="-106 0 512 512" xmlns="http://www.w3.org/2000/svg"><path d="m70 100c5.519531 0 10-4.480469 10-10s-4.480469-10-10-10-10 4.480469-10 10 4.480469 10 10 10zm0 0"/><path d="m230 100c5.519531 0 10-4.480469 10-10s-4.480469-10-10-10-10 4.480469-10 10 4.480469 10 10 10zm0 0"/><path d="m290 0c-5.523438 0-10 4.476562-10 10v30h-20v-30c0-5.523438-4.476562-10-10-10s-10 4.476562-10 10v30h-20v-30c0-5.523438-4.476562-10-10-10s-10 4.476562-10 10v30h-20v-30c0-5.523438-4.476562-10-10-10s-10 4.476562-10 10v30h-20v-30c0-5.523438-4.476562-10-10-10s-10 4.476562-10 10v30h-20v-30c0-5.523438-4.476562-10-10-10s-10 4.476562-10 10v30h-20v-30c0-5.523438-4.476562-10-10-10s-10 4.476562-10 10v30h-20v-30c0-5.523438-4.476562-10-10-10s-10 4.476562-10 10v80c0 27.570312 22.429688 50 50 50h10v32h-30c-5.523438 0-10 4.476562-10 10v40c0 5.523438 4.476562 10 10 10h29.851562c-.773437 23.003906-4.832031 46.097656-12.121093 68.769531-7.34375 22.855469-11.730469 50.789063-11.730469 74.730469 0 38.632812 11.667969 73.589844 32.851562 98.425781 20.945313 24.550781 49.765626 38.074219 81.148438 38.074219s60.203125-13.523438 81.148438-38.074219c21.183593-24.835937 32.851562-59.792969 32.851562-98.425781 0-23.9375-4.386719-51.875-11.730469-74.730469-8.140625-25.328125-12.269531-51.183593-12.269531-76.851562v-43.917969h20v51c0 5.523438 4.476562 10 10 10s10-4.476562 10-10v-61c0-5.523438-4.476562-10-10-10h-30v-20h10c27.570312 0 50-22.429688 50-50v-80c0-5.523438-4.476562-10-10-10zm-250 192h20v20h-20zm204 183.5c0 67.503906-39.53125 116.5-94 116.5s-94-48.996094-94-116.5c0-21.976562 4.027344-47.625 10.773438-68.609375 8.777343-27.3125 13.226562-55.226563 13.226562-82.972656v-83.917969h140v83.917969c0 27.75 4.449219 55.664062 13.230469 82.972656 6.742187 20.984375 10.769531 46.632813 10.769531 68.609375zm36-285.5c0 16.542969-13.457031 30-30 30h-200c-16.542969 0-30-13.457031-30-30v-30h260zm0 0"/><path d="m210.121094 374.691406c-.050782-.011718-.089844-.011718-.132813-.011718-2.640625 0-5.140625 1.03125-7.019531 2.890624-1.890625 1.859376-2.9375 4.5-2.96875 7.148438-.070312 5.511719 4.359375 10.28125 9.867188 10.28125h.121093c2.648438 0 5.140625-1.179688 7.03125-3.039062 1.878907-1.859376 2.9375-4.421876 2.96875-7.070313.039063-2.671875-.96875-5.242187-2.839843-7.152344-1.859376-1.910156-4.359376-3.019531-7.027344-3.046875zm0 0"/><path d="m203.988281 414.039062c-1.4375-.738281-2.988281-1.117187-4.597656-1.117187-3.761719 0-7.160156 2.058594-8.890625 5.386719-5.089844 9.832031-11.800781 18.511718-18.890625 24.453125-7.199219 6.039062-14.648437 9.238281-21.542969 9.238281h-.066406c-5.511719 0-10 4.488281-10 10 0 5.519531 4.488281 10 10 10h.011719c6.199219-.011719 12.417969-1.328125 18.488281-3.921875 5.480469-2.328125 10.851562-5.699219 15.980469-10.007813 9.167969-7.730468 17.390625-18.289062 23.769531-30.539062 2.539062-4.902344.628906-10.953125-4.261719-13.492188zm0 0"/><path d="m200 330v-120c0-27.570312-22.429688-50-50-50s-50 22.429688-50 50v120c0 27.570312 22.429688 50 50 50s50-22.429688 50-50zm-80 0v-120c0-16.542969 13.457031-30 30-30s30 13.457031 30 30v120c0 16.542969-13.457031 30-30 30s-30-13.457031-30-30zm0 0"/><path d="m150 270c5.511719 0 10-4.488281 10-10s-4.488281-10-10-10-10 4.488281-10 10 4.488281 10 10 10zm0 0"/><path d="m150 230c5.511719 0 10-4.488281 10-10v-10c0-5.511719-4.488281-10-10-10s-10 4.488281-10 10v10c0 5.511719 4.488281 10 10 10zm0 0"/><path d="m160 330v-30c0-5.511719-4.488281-10-10-10s-10 4.488281-10 10v30c0 5.511719 4.488281 10 10 10s10-4.488281 10-10zm0 0"/></svg>